<svg width="26" height="26" viewBox="0 0 26 26" fill="none" xmlns="http://www.w3.org/2000/svg">
<g filter="url(#filter0_d_0_78)">
<path opacity="0.24" fill-rule="evenodd" clip-rule="evenodd" d="M7.9056 1C7.9056 0.447715 8.35471 0 8.901 0H16.9102C17.4599 0 17.9056 0.443865 17.9056 1C17.9056 1.55228 17.4565 2 16.9102 2H8.901C8.35125 2 7.9056 1.55614 7.9056 1ZM4.0101 8.0949L4.81102 16.1041C4.91727 17.1665 5.83603 18 6.90122 18H18.91C19.9712 18 20.8943 17.1632 21.0002 16.1041L21.8011 8.0949C21.9152 6.95379 21.0495 6 19.9047 6H5.90647C4.75932 6 3.89619 6.95576 4.0101 8.0949ZM6.01101 8.00421L19.7998 8.0079L18.9056 16H6.9056L6.01101 8.00421ZM6.90122 3C6.35555 3 5.9056 3.44772 5.9056 4C5.9056 4.55614 6.35136 5 6.90122 5H18.91C19.4557 5 19.9056 4.55228 19.9056 4C19.9056 3.44386 19.4598 3 18.91 3H6.90122Z" fill="black"/>
</g>
<defs>
<filter id="filter0_d_0_78" x="0" y="0" width="25.8113" height="26" filterUnits="userSpaceOnUse" color-interpolation-filters="sRGB">
<feFlood flood-opacity="0" result="BackgroundImageFix"/>
<feColorMatrix in="SourceAlpha" type="matrix" values="0 0 0 0 0 0 0 0 0 0 0 0 0 0 0 0 0 0 127 0" result="hardAlpha"/>
<feOffset dy="4"/>
<feGaussianBlur stdDeviation="2"/>
<feComposite in2="hardAlpha" operator="out"/>
<feColorMatrix type="matrix" values="0 0 0 0 0 0 0 0 0 0 0 0 0 0 0 0 0 0 0.25 0"/>
<feBlend mode="normal" in2="BackgroundImageFix" result="effect1_dropShadow_0_78"/>
<feBlend mode="normal" in="SourceGraphic" in2="effect1_dropShadow_0_78" result="shape"/>
</filter>
</defs>
</svg>
